<?xml version="1.0" encoding="iso-8859-1"?>
<!-- Generator: Adobe Illustrator 19.0.0, SVG Export Plug-In . SVG Version: 6.00 Build 0)  -->
<svg version="1.1" id="Capa_1" xmlns="http://www.w3.org/2000/svg" xmlns:xlink="http://www.w3.org/1999/xlink" x="0px" y="0px"
	 viewBox="0 0 512 512" style="enable-background:new 0 0 512 512;" xml:space="preserve">
<g>
	<g>
		<path d="M460.617,103.815l-170.49-63.748V37.5c0-1.835-0.673-3.606-1.891-4.979l-26.628-30C260.185,0.918,258.144,0,255.999,0
			c-2.144,0-4.185,0.918-5.609,2.522l-26.628,30c-1.218,1.372-1.891,3.144-1.891,4.979v39.938L87.235,127.773
			c-0.026,0.011-0.054,0.019-0.08,0.03l-25.645,9.588v-21.347l141.337-52.848c3.88-1.451,5.849-5.772,4.398-9.652
			c-1.452-3.88-5.774-5.849-9.652-4.398l-146.21,54.67c-2.931,1.097-4.873,3.896-4.873,7.025v37.36c0,2.459,1.205,4.761,3.225,6.162
			c1.273,0.884,2.768,1.338,4.276,1.338c0.885,0,1.773-0.156,2.625-0.475l25.944-9.699v86.384v90.86v90.87V504.5
			c0,4.142,3.357,7.5,7.5,7.5H170h172h79.92c4.143,0,7.5-3.357,7.5-7.5v-90.859v-90.87v-90.86v-62.53v-23.854l25.944,9.699
			c0.852,0.318,1.74,0.475,2.625,0.475c1.508,0,3.003-0.454,4.276-1.338c2.02-1.401,3.225-3.703,3.225-6.162v-37.36
			C465.49,107.712,463.547,104.912,460.617,103.815z M236.871,40.349L236.871,40.349l19.128-21.551l19.128,21.551V93h-38.256V40.349
			z M221.871,93.452v7.048c0,4.143,3.357,7.5,7.5,7.5h53.256c4.143,0,7.5-3.357,7.5-7.5v-7.048l107.257,40.099h-282.77
			L221.871,93.452z M162.5,497.001H97.58v-75.859h64.92V497.001z M162.5,406.142H97.58v-75.87h64.92V406.142z M162.5,315.271H97.58
			v-75.86h64.92V315.271z M414.419,497.001h-64.92v-9.01c0-4.143-3.357-7.5-7.5-7.5s-7.5,3.357-7.5,7.5v9.01h-157V221.13h157v31.194
			h-22c-1.515,0-2.994,0.459-4.243,1.315l-16,10.979c-2.039,1.399-3.257,3.713-3.257,6.185c0,2.473,1.219,4.786,3.257,6.185
			l16,10.978c1.249,0.856,2.729,1.315,4.243,1.315h55c4.143,0,7.5-3.358,7.5-7.5v-21.956c0-4.143-3.357-7.5-7.5-7.5h-18v-12.913
			h64.92v75.86h-64.92v-3.53c0-4.143-3.357-7.5-7.5-7.5s-7.5,3.357-7.5,7.5V428.85h-22c-1.515,0-2.994,0.459-4.243,1.315l-16,10.978
			c-2.038,1.398-3.257,3.712-3.257,6.184c0,2.473,1.219,4.786,3.257,6.185l16,10.978c1.249,0.857,2.729,1.315,4.243,1.315h55
			c4.143,0,7.5-3.357,7.5-7.5V436.35c0-4.143-3.357-7.5-7.5-7.5h-18v-7.708h64.92V497.001z M334.5,206.13h-157v-31.869h157V206.13z
			 M359.999,267.323L359.999,267.323v6.957h-45.175l-5.068-3.478l5.068-3.479H359.999z M359.999,443.85v6.955h-45.175l-5.068-3.478
			l5.068-3.477h27.137c0.013,0,0.025,0.002,0.039,0.002c0.013,0,0.026-0.002,0.039-0.002H359.999z M349.499,406.142v-75.87h64.92
			v75.87H349.499z M414.419,224.411h-64.92V213.63v-46.869v-0.004c0-4.143-3.357-7.5-7.5-7.5h-172c-4.143,0-7.5,3.357-7.5,7.5v0.004
			v46.869v10.781h-64.92v-75.86h316.84v20.83h0V224.411z M290.127,77.438V56.083l160.362,59.961v21.347L290.127,77.438z"/>
	</g>
</g>
<g>
	<g>
		<path d="M193.5,303.491c-4.143,0-7.5,3.357-7.5,7.5v46.5c0,4.143,3.357,7.5,7.5,7.5s7.5-3.357,7.5-7.5v-46.5
			C201,306.849,197.642,303.491,193.5,303.491z"/>
	</g>
</g>
<g>
</g>
<g>
</g>
<g>
</g>
<g>
</g>
<g>
</g>
<g>
</g>
<g>
</g>
<g>
</g>
<g>
</g>
<g>
</g>
<g>
</g>
<g>
</g>
<g>
</g>
<g>
</g>
<g>
</g>
</svg>
